<svg width="331" height="97" viewBox="0 0 331 97" fill="none" xmlns="http://www.w3.org/2000/svg">
<path d="M238 34.0015L284.5 67.0014C284.5 67.0014 292 52.0014 287.5 42.0014C283 32.0014 277 24.5015 262 23.5015C247 22.5015 238 34.0015 238 34.0015Z" fill="url(#paint0_linear_1605_13182)"/>
<path d="M308.5 86.0014C308.5 86.0014 225.5 32.002 218.5 18.0015C218.5 18.0015 217 15.0004 218.5 14.501C220 14.0015 225 14.001 225 14.001C225 14.001 219.5 10.501 218.5 10.0015C217.5 9.50199 214.514 8.80329 212.5 10.0015C211.189 10.7813 210.37 11.643 210 13.0015C209.476 14.9219 211 17.9995 211 17.9995C244.5 56.5017 302.5 91.0014 302.5 91.0014L308.5 86.0014Z" fill="url(#paint1_linear_1605_13182)"/>
<path d="M217.001 6.0003L205.501 3.5003C205.501 3.5003 202.17 4.36478 201.001 6.0003C198.88 8.96798 200.499 11.2969 203.501 15.0003C241.999 58.001 273.499 75.501 300.001 92.5003L292.501 96.5003C231.501 60 199.501 18.5 199.501 18.5C199.501 18.5 194.158 13.0288 194.5 8.5C194.743 5.27701 194.423 3.95015 197.001 2.00014C199.821 -0.133388 203.021 -0.129264 206.501 0.499833C211.35 1.37653 217.001 6.0003 217.001 6.0003Z" fill="url(#paint2_linear_1605_13182)"/>
<path d="M233 57.0014L261 79.0014C261 79.0014 249 79.5014 241 72.0014C233 64.5014 233 57.0014 233 57.0014Z" fill="url(#paint3_linear_1605_13182)"/>
<path d="M294 35.0015H301V47.0014H324V35.0015H331V64.5014V65.0014H324V52.0014H301V65.0014H294V35.0015Z" fill="#CECECE"/>
<path d="M183 35.0007V48.0014L200 35.0007H210L191 49.0014L212 65.0007H201L183 52.0014V65.0007H176V35.0007H183Z" fill="#CECECE"/>
<path d="M132 35.0007L139 35.0015V56.0014L163 35.0007H168V65.0007H162V44.0014L138 65.0007H132V35.0007Z" fill="#CECECE"/>
<path fill-rule="evenodd" clip-rule="evenodd" d="M91 35.0007C91 35.0007 108.675 34.998 120 35.0007C124 35.5015 124 39.0007 124 39.0007C124 39.0007 124.5 43.5 124 46.0007C123.5 48.5014 120 49.5007 120 49.5007C120 49.5007 123.5 50.0014 124 53.0007V62.0007C123.5 64.5014 120 65.0007 120 65.0007H91V35.0007ZM116 39.0007H98V47.0007H116C120.5 43.0007 116 39.0007 116 39.0007ZM116 52.0007H98V60.0007H116C120 57.0007 118.5 53.5007 116 52.0007Z" fill="#CECECE"/>
<path d="M0 35.0007H7V47.0007H30V35.0007H37V65.0007H30V52.0007H7V65.0007H0V35.0007Z" fill="#CECECE"/>
<path fill-rule="evenodd" clip-rule="evenodd" d="M43 65.0007L60 35.0007H67L84 65.0007H76L72 58.0007H54L50 65.0007H43ZM70 53.0007H56L63.5 41.0007L70 53.0007Z" fill="#CECECE"/>
<path d="M226.5 14.001C226.5 11.0982 228.597 9.00097 231.5 9.00097C234.403 9.00097 236.5 11.0982 236.5 14.001C236.5 16.9037 234.403 19.001 231.5 19.001C228.597 19.001 226.5 16.9037 226.5 14.001Z" fill="#CECECE"/>
<defs>
<linearGradient id="paint0_linear_1605_13182" x1="293" y1="62.5" x2="234.5" y2="19" gradientUnits="userSpaceOnUse">
<stop stop-color="#49B8F7"/>
<stop offset="1" stop-color="#1273A9"/>
</linearGradient>
<linearGradient id="paint1_linear_1605_13182" x1="165.5" y1="0.133789" x2="324.5" y2="126.5" gradientUnits="userSpaceOnUse">
<stop stop-color="#006EAB"/>
<stop offset="1" stop-color="#86D3FE"/>
</linearGradient>
<linearGradient id="paint2_linear_1605_13182" x1="173" y1="-15.5" x2="319.5" y2="126" gradientUnits="userSpaceOnUse">
<stop stop-color="#1670A2"/>
<stop offset="1" stop-color="#90D6FD"/>
</linearGradient>
<linearGradient id="paint3_linear_1605_13182" x1="171" y1="-7.5" x2="327" y2="104.5" gradientUnits="userSpaceOnUse">
<stop stop-color="#005C8F"/>
<stop offset="1" stop-color="#6FC5F5"/>
</linearGradient>
</defs>
</svg>
