<svg width="333" height="98" viewBox="0 0 333 98" fill="none" xmlns="http://www.w3.org/2000/svg">
<path d="M239 35.0015L285.5 68.0014C285.5 68.0014 293 53.0014 288.5 43.0014C284 33.0014 278 25.5015 263 24.5015C248 23.5015 239 35.0015 239 35.0015Z" fill="url(#paint0_linear_1605_13182)"/>
<path d="M309.5 87.0014C309.5 87.0014 226.5 33.002 219.5 19.0015C219.5 19.0015 218 16.0004 219.5 15.501C221 15.0015 226 15.001 226 15.001C226 15.001 220.5 11.501 219.5 11.0015C218.5 10.502 215.514 9.80329 213.5 11.0015C212.189 11.7813 211.37 12.643 211 14.0015C210.476 15.9219 212 18.9995 212 18.9995C245.5 57.5017 303.5 92.0014 303.5 92.0014L309.5 87.0014Z" fill="url(#paint1_linear_1605_13182)"/>
<path d="M218.001 7.0003L206.501 4.5003C206.501 4.5003 203.17 5.36478 202.001 7.0003C199.88 9.96798 201.499 12.2969 204.501 16.0003C242.999 59.001 274.499 76.501 301.001 93.5003L293.501 97.5003C232.501 61 200.501 19.5 200.501 19.5C200.501 19.5 195.158 14.0288 195.5 9.5C195.743 6.27701 195.423 4.95015 198.001 3.00014C200.821 0.866612 204.021 0.870736 207.501 1.49983C212.35 2.37653 218.001 7.0003 218.001 7.0003Z" fill="url(#paint2_linear_1605_13182)"/>
<path d="M234 58.0014L262 80.0014C262 80.0014 250 80.5014 242 73.0014C234 65.5014 234 58.0014 234 58.0014Z" fill="url(#paint3_linear_1605_13182)"/>
<path d="M295 36.0015H302V48.0014H325V36.0015H332V65.5014V66.0014H325V53.0014H302V66.0014H295V36.0015Z" fill="#CECECE"/>
<path d="M184 36.0007V49.0014L201 36.0007H211L192 50.0014L213 66.0007H202L184 53.0014V66.0007H177V36.0007H184Z" fill="#CECECE"/>
<path d="M133 36.0007L140 36.0015V57.0014L164 36.0007H169V66.0007H163V45.0014L139 66.0007H133V36.0007Z" fill="#CECECE"/>
<path fill-rule="evenodd" clip-rule="evenodd" d="M92 36.0007C92 36.0007 109.675 35.998 121 36.0007C125 36.5015 125 40.0007 125 40.0007C125 40.0007 125.5 44.5 125 47.0007C124.5 49.5014 121 50.5007 121 50.5007C121 50.5007 124.5 51.0014 125 54.0007V63.0007C124.5 65.5014 121 66.0007 121 66.0007H92V36.0007ZM117 40.0007H99V48.0007H117C121.5 44.0007 117 40.0007 117 40.0007ZM117 53.0007H99V61.0007H117C121 58.0007 119.5 54.5007 117 53.0007Z" fill="#CECECE"/>
<path d="M1 36.0007H8V48.0007H31V36.0007H38V66.0007H31V53.0007H8V66.0007H1V36.0007Z" fill="#CECECE"/>
<path fill-rule="evenodd" clip-rule="evenodd" d="M44 66.0007L61 36.0007H68L85 66.0007H77L73 59.0007H55L51 66.0007H44ZM71 54.0007H57L64.5 42.0007L71 54.0007Z" fill="#CECECE"/>
<path d="M227.5 15.001C227.5 12.0982 229.597 10.001 232.5 10.001C235.403 10.001 237.5 12.0982 237.5 15.001C237.5 17.9037 235.403 20.001 232.5 20.001C229.597 20.001 227.5 17.9037 227.5 15.001Z" fill="#CECECE"/>
<path d="M125 54.0007C124.5 51.0014 121 50.5007 121 50.5007C121 50.5007 124.5 49.5014 125 47.0007C125.5 44.5 125 40.0007 125 40.0007C125 40.0007 125 36.5015 121 36.0007C109.675 35.998 92 36.0007 92 36.0007V66.0007H121C121 66.0007 124.5 65.5014 125 63.0007M125 54.0007C125 57.5014 125 59.0014 125 63.0007M125 54.0007V63.0007M117 48.0007C121.5 44.0007 117 40.0007 117 40.0007H99V48.0007M117 48.0007C110.5 48.0007 99 48.0007 99 48.0007M117 48.0007H99M117 61.0007C121 58.0007 119.5 54.5007 117 53.0007H99V61.0007M117 61.0007C111.5 61.0007 106.5 61.0007 99 61.0007M117 61.0007H99M1 36.0007H8V48.0007H31V36.0007H38V66.0007H31V53.0007H8V66.0007H1V36.0007ZM44 66.0007L61 36.0007H68L85 66.0007H77L73 59.0007H55L51 66.0007H44ZM57 54.0007H71L64.5 42.0007L57 54.0007ZM133 36.0007L140 36.0015V57.0014L164 36.0007H169V66.0007H163V45.0014L139 66.0007H133V36.0007ZM177 36.0007H184V49.0014L201 36.0007H211L192 50.0014L213 66.0007H202L184 53.0014V66.0007H177V36.0007ZM295 36.0015H302V48.0014H325V36.0015H332V65.5014V66.0014H325V53.0014H302V66.0014H295V36.0015ZM227.5 15.001C227.5 12.0982 229.597 10.001 232.5 10.001C235.403 10.001 237.5 12.0982 237.5 15.001C237.5 17.9037 235.403 20.001 232.5 20.001C229.597 20.001 227.5 17.9037 227.5 15.001ZM239 35.0015L285.5 68.0014C285.5 68.0014 293 53.0014 288.5 43.0014C284 33.0014 278 25.5015 263 24.5015C248 23.5015 239 35.0015 239 35.0015ZM234 58.0014L262 80.0014C262 80.0014 250 80.5014 242 73.0014C234 65.5014 234 58.0014 234 58.0014ZM309.5 87.0014C309.5 87.0014 226.5 33.002 219.5 19.0015C219.5 19.0015 218 16.0004 219.5 15.501C221 15.0015 226 15.001 226 15.001C226 15.001 220.5 11.501 219.5 11.0015C218.5 10.502 215.514 9.80329 213.5 11.0015C212.189 11.7813 211.37 12.643 211 14.0015C210.476 15.9219 212 18.9995 212 18.9995C245.5 57.5017 303.5 92.0014 303.5 92.0014L309.5 87.0014ZM218.001 7.0003L206.501 4.5003C206.501 4.5003 203.17 5.36478 202.001 7.0003C199.88 9.96798 201.499 12.2969 204.501 16.0003C242.999 59.001 274.499 76.501 301.001 93.5003L293.501 97.5003C232.501 61 200.501 19.5 200.501 19.5C200.501 19.5 195.158 14.0288 195.5 9.5C195.743 6.27701 195.423 4.95015 198.001 3.00014C200.821 0.866612 204.021 0.870736 207.501 1.49983C212.35 2.37653 218.001 7.0003 218.001 7.0003Z" stroke="black" stroke-width="0.5" stroke-linejoin="round"/>
<defs>
<linearGradient id="paint0_linear_1605_13182" x1="294" y1="63.5" x2="235.5" y2="20" gradientUnits="userSpaceOnUse">
<stop stop-color="#49B8F7"/>
<stop offset="1" stop-color="#1273A9"/>
</linearGradient>
<linearGradient id="paint1_linear_1605_13182" x1="166.5" y1="1.13379" x2="325.5" y2="127.5" gradientUnits="userSpaceOnUse">
<stop stop-color="#006EAB"/>
<stop offset="1" stop-color="#86D3FE"/>
</linearGradient>
<linearGradient id="paint2_linear_1605_13182" x1="174" y1="-14.5" x2="320.5" y2="127" gradientUnits="userSpaceOnUse">
<stop stop-color="#1670A2"/>
<stop offset="1" stop-color="#90D6FD"/>
</linearGradient>
<linearGradient id="paint3_linear_1605_13182" x1="172" y1="-6.5" x2="328" y2="105.5" gradientUnits="userSpaceOnUse">
<stop stop-color="#005C8F"/>
<stop offset="1" stop-color="#6FC5F5"/>
</linearGradient>
</defs>
</svg>
